<svg width="30" height="30" viewBox="0 0 23 16" fill="none" xmlns="http://www.w3.org/2000/svg">
<path d="M22.7304 1.51816L8.01105 15.7393C7.92562 15.822 7.82415 15.8875 7.71247 15.9322C7.60079 15.977 7.48108 16 7.36018 16C7.23929 16 7.11958 15.977 7.00789 15.9322C6.89621 15.8875 6.79475 15.822 6.70931 15.7393L0.2696 9.51756C0.0969778 9.35078 0 9.12458 0 8.88872C0 8.65286 0.0969778 8.42666 0.2696 8.25988C0.442221 8.0931 0.676347 7.9994 0.92047 7.9994C1.16459 7.9994 1.39872 8.0931 1.57134 8.25988L7.36018 13.8539L21.4287 0.260474C21.6013 0.0936951 21.8354 -1.7573e-09 22.0795 0C22.3237 1.75731e-09 22.5578 0.0936951 22.7304 0.260474C22.903 0.427254 23 0.653455 23 0.889317C23 1.12518 22.903 1.35138 22.7304 1.51816Z" fill="#008A66"/>
</svg>
