<svg width="20" height="20" viewBox="0 0 24 23" fill="none" xmlns="http://www.w3.org/2000/svg">
<path d="M18.156 10.8L19.668 9.288C20.196 8.76 20.868 8.472 21.6 8.4V7.2L14.4 0H2.4C1.068 0 0 1.068 0 2.4V19.2C0 19.8365 0.252856 20.447 0.702944 20.8971C1.15303 21.3471 1.76348 21.6 2.4 21.6H9.6V19.356L9.756 19.2H2.4V2.4H10.8V10.8H18.156ZM13.2 1.8L19.8 8.4H13.2V1.8ZM19.356 12.996L21.804 15.444L14.448 22.8H12V20.352L19.356 12.996ZM23.82 13.428L22.644 14.604L20.196 12.156L21.372 10.98C21.6 10.74 21.996 10.74 22.236 10.98L23.82 12.564C24.06 12.804 24.06 13.2 23.82 13.428Z" fill="#02513D"/>
</svg>
