<svg width="24" height="20" viewBox="0 0 24 20" fill="none" xmlns="http://www.w3.org/2000/svg">
<path d="M22.2222 2.66667H14.5189L11.4367 0.355556C11.1285 0.125617 10.7545 0.00095371 10.37 0H5.33333C4.86184 0 4.40965 0.187301 4.07625 0.520699C3.74286 0.854097 3.55556 1.30628 3.55556 1.77778V3.55556H1.77778C1.30628 3.55556 0.854097 3.74286 0.520699 4.07625C0.187301 4.40965 0 4.86184 0 5.33333V17.7778C0 18.2493 0.187301 18.7015 0.520699 19.0349C0.854097 19.3683 1.30628 19.5556 1.77778 19.5556H18.7656C19.2106 19.555 19.6373 19.3779 19.9521 19.0632C20.2668 18.7484 20.4439 18.3218 20.4444 17.8767V16H22.3211C22.7662 15.9994 23.1929 15.8223 23.5076 15.5076C23.8223 15.1929 23.9994 14.7662 24 14.3211V4.44444C24 3.97295 23.8127 3.52076 23.4793 3.18737C23.1459 2.85397 22.6937 2.66667 22.2222 2.66667ZM18.6667 17.7778H1.77778V5.33333H6.81444L10.1333 7.82222C10.2872 7.93762 10.4743 8 10.6667 8H18.6667V17.7778ZM22.2222 14.2222H20.4444V8C20.4444 7.5285 20.2571 7.07632 19.9237 6.74292C19.5903 6.40952 19.1382 6.22222 18.6667 6.22222H10.9633L7.88111 3.91111C7.57294 3.68117 7.19895 3.55651 6.81444 3.55556H5.33333V1.77778H10.37L13.6889 4.26667C13.8428 4.38206 14.0299 4.44444 14.2222 4.44444H22.2222V14.2222Z" fill="#02513D"/>
</svg>
