<svg width="26" height="19" viewBox="0 0 26 19" fill="none" xmlns="http://www.w3.org/2000/svg">
<path d="M20.8219 4.79267C20.665 6.9714 19.0487 8.64978 17.2862 8.64978C15.5238 8.64978 13.9048 6.97194 13.7505 4.79267C13.5898 2.52607 15.1632 0.935547 17.2862 0.935547C19.4093 0.935547 20.9826 2.56732 20.8219 4.79267Z" stroke="#02513D" stroke-width="1.7" stroke-linecap="round" stroke-linejoin="round"/>
<path d="M17.2858 12.0781C13.7946 12.0781 10.4373 13.8122 9.59621 17.1893C9.48478 17.6361 9.76496 18.0781 10.2241 18.0781H24.3481C24.8072 18.0781 25.0858 17.6361 24.9759 17.1893C24.1349 13.7581 20.7776 12.0781 17.2858 12.0781Z" stroke="#02513D" stroke-width="1.7" stroke-miterlimit="10"/>
<path d="M10.0004 5.75332C9.87505 7.49331 8.56899 8.86366 7.16114 8.86366C5.75329 8.86366 4.44508 7.49385 4.32187 5.75332C4.19384 3.94316 5.46508 2.64941 7.16114 2.64941C8.8572 2.64941 10.1284 3.97637 10.0004 5.75332Z" stroke="#02513D" stroke-width="1.7" stroke-linecap="round" stroke-linejoin="round"/>
<path d="M10.3219 12.1857C9.35494 11.7426 8.28994 11.5723 7.1612 11.5723C4.3755 11.5723 1.69159 12.9571 1.01927 15.6544C0.930882 16.0112 1.15481 16.3642 1.52124 16.3642H7.5362" stroke="#02513D" stroke-width="1.7" stroke-miterlimit="10" stroke-linecap="round"/>
</svg>
