<svg width="14" height="16" viewBox="0 0 12 14" fill="none" xmlns="http://www.w3.org/2000/svg">
<path d="M10 5L9.44 10.5987C9.35533 11.4473 9.31333 11.8713 9.12 12.192C8.95044 12.4743 8.70106 12.7 8.40333 12.8407C8.06533 13 7.64 13 6.78667 13H5.21333C4.36067 13 3.93467 13 3.59667 12.84C3.2987 12.6994 3.04908 12.4737 2.87933 12.1913C2.68733 11.8713 2.64467 11.4473 2.55933 10.5987L2 5M7 9.33333V6M5 9.33333V6M1 3.33333H4.07667M4.07667 3.33333L4.334 1.552C4.40867 1.228 4.678 1 4.98733 1H7.01267C7.322 1 7.59067 1.228 7.666 1.552L7.92333 3.33333M4.07667 3.33333H7.92333M7.92333 3.33333H11" stroke="black" stroke-width="0.8" stroke-linecap="round" stroke-linejoin="round"/>
</svg>
